<svg width="566" height="338" viewBox="0 0 566 338" fill="none" xmlns="http://www.w3.org/2000/svg">
<path d="M73.5 67V10H0.5M73.5 67H248.5M73.5 67L95.25 115.625M160.5 261.5C116.5 261.5 115 327.5 160.5 327.5C205.017 327.5 204.543 264.32 163.292 261.591M160.5 261.5C161.45 261.5 162.381 261.531 163.292 261.591M160.5 261.5H248.5M160.5 261.5L138.75 212.875M423.5 261.5C381.5 261.5 381 327.5 423.5 327.5C466 327.5 465.5 261.5 423.5 261.5ZM423.5 261.5V67M423.5 261.5H336M423.5 261.5L454.5 212.875M160.5 72L163.292 261.591M423.5 67H547.5L516.5 115.625M423.5 67H336M248.5 67V261.5M248.5 67H336M248.5 261.5H336M336 67V261.5M485.5 164.25H117M485.5 164.25L516.5 115.625M485.5 164.25L454.5 212.875M117 164.25L95.25 115.625M117 164.25L138.75 212.875M95.25 115.625H516.5M138.75 212.875H454.5" stroke="black" stroke-width="20"/>
</svg>
